<?xml version="1.0" encoding="utf-8"?>
<!-- Generator: Adobe Illustrator 28.2.0, SVG Export Plug-In . SVG Version: 6.00 Build 0)  -->
<svg version="1.1" id="Layer_1" xmlns="http://www.w3.org/2000/svg" xmlns:xlink="http://www.w3.org/1999/xlink" x="0px" y="0px"
	 viewBox="0 0 313.9 214.4" style="enable-background:new 0 0 313.9 214.4;" xml:space="preserve">
<style type="text/css">
	.st0{fill:none;}
	.st1{opacity:0.2;fill:#F5F1E8;enable-background:new    ;}
	.st2{fill:none;stroke:#2C5530;stroke-width:2;}
	.st3{stroke:#C96D3A;stroke-width:2;stroke-linecap:round;}
	.st4{fill:none;stroke:#C96D3A;stroke-width:1.5;}
	.st5{enable-background:new    ;}
	.st6{fill:#2C5530;}
	.st7{fill:#C96D3A;}
	.st8{font-family:'ArialMT';}
	.st9{font-size:28px;}
	.st10{fill:none;stroke:#3A3E3B;stroke-width:0.5;stroke-dasharray:1,2;}
	.st11{fill:#3A3E3B;}
</style>
<rect class="st0" width="313.9" height="214.4"/>
<path class="st1" d="M156.9,17.2c80,0,130,50,130,90c0,50-50,90-130,90c-70,0-130-40-130-90C26.9,67.2,76.9,17.2,156.9,17.2z"/>
<g>
	<path class="st2" d="M126.9,97.2v20h60v-20"/>
	<line class="st2" x1="156.9" y1="87.2" x2="156.9" y2="127.2"/>
	<path class="st3" d="M156.9,67.2v20"/>
	<path class="st4" d="M146.9,72.2c5-5,15-5,20,0"/>
	<path class="st4" d="M141.9,82.2c10-10,20-10,30,0"/>
	<path class="st4" d="M146.9,137.2c5-10,15-10,20,0"/>
	<path class="st3" d="M156.9,127.2v20"/>
</g>
<g>
	<g class="st5">
		<path class="st6" d="M104.6,57.2V42.8h1.2v5.5c0.5-0.5,1-0.9,1.5-1.2s1.1-0.5,1.9-0.5c0.6,0,1.2,0.1,1.8,0.3
			c0.5,0.2,1,0.6,1.4,1.1c0.3,0.4,0.4,0.8,0.4,1.2s0.1,0.8,0.1,1.2v6.8h-1.2v-6.8c0-0.9-0.2-1.6-0.6-2.1c-0.4-0.5-1.1-0.7-2.1-0.7
			c-0.4,0-0.7,0.1-1,0.2s-0.6,0.3-0.8,0.4c-0.2,0.2-0.5,0.4-0.6,0.6s-0.3,0.5-0.4,0.8c-0.1,0.3-0.2,0.7-0.2,1c0,0.3,0,0.6,0,1v5.6
			H104.6z"/>
		<path class="st6" d="M126.5,51.2c0.2,0,0.5-0.1,0.8-0.1c0.3-0.1,0.6-0.1,0.8-0.2c0.2-0.1,0.3-0.2,0.4-0.5c0-0.2,0.1-0.4,0.1-0.6
			c0-0.6-0.2-1.1-0.6-1.5c-0.4-0.4-1.1-0.6-2-0.6c-0.4,0-0.8,0-1.1,0.1s-0.6,0.2-0.9,0.4c-0.3,0.2-0.5,0.4-0.6,0.7
			c-0.2,0.3-0.3,0.7-0.3,1.1h-1.2c0-0.6,0.2-1.1,0.4-1.6c0.2-0.4,0.6-0.8,0.9-1.1s0.8-0.5,1.3-0.6c0.5-0.1,1-0.2,1.6-0.2
			c0.5,0,1,0.1,1.5,0.2s0.9,0.3,1.2,0.5c0.3,0.2,0.6,0.6,0.8,1c0.2,0.4,0.3,0.9,0.3,1.5v5.6c0,0.5,0.1,0.8,0.2,0.9
			c0.2,0.1,0.5,0.1,1-0.1v0.9c-0.1,0-0.2,0.1-0.4,0.1c-0.2,0.1-0.4,0.1-0.5,0.1c-0.2,0-0.4,0-0.5-0.1c-0.2,0-0.4-0.1-0.5-0.2
			c-0.1-0.1-0.2-0.2-0.3-0.4c-0.1-0.1-0.1-0.3-0.2-0.5c0-0.2,0-0.3,0-0.5c-0.5,0.6-1.1,1-1.7,1.3s-1.4,0.4-2.1,0.4
			c-0.5,0-0.9-0.1-1.3-0.2c-0.4-0.1-0.8-0.3-1.1-0.6s-0.6-0.6-0.8-0.9c-0.2-0.4-0.3-0.8-0.3-1.3c0-1.8,1.2-2.8,3.6-3.1L126.5,51.2z
			 M128.5,51.8c-0.5,0.2-1,0.4-1.5,0.4c-0.5,0.1-1,0.1-1.6,0.2c-0.9,0.1-1.6,0.3-2.1,0.6c-0.5,0.3-0.8,0.9-0.8,1.6
			c0,0.3,0.1,0.6,0.2,0.8c0.1,0.2,0.3,0.4,0.5,0.6c0.2,0.2,0.4,0.3,0.7,0.3s0.6,0.1,0.8,0.1c0.5,0,0.9-0.1,1.4-0.2
			c0.5-0.1,0.9-0.3,1.2-0.5c0.4-0.2,0.6-0.6,0.9-0.9s0.3-0.8,0.3-1.4V51.8z"/>
		<path class="st6" d="M140.1,57.2h-1.2V46.9h1.2v1.9h0c0.3-0.8,0.8-1.4,1.3-1.7c0.5-0.3,1.2-0.5,2.1-0.5v1.3
			c-0.7,0-1.2,0.1-1.7,0.3s-0.8,0.5-1,0.9c-0.3,0.4-0.4,0.8-0.5,1.4c-0.1,0.5-0.1,1.1-0.1,1.7V57.2z"/>
		<path class="st6" d="M150.4,46.9h1.3l3.4,8.9l3.4-8.9h1.3l-4,10.4h-1.3L150.4,46.9z"/>
		<path class="st6" d="M168.2,52.3c0,0.6,0.1,1.1,0.2,1.6c0.1,0.5,0.4,0.9,0.6,1.3c0.3,0.4,0.7,0.7,1.1,0.9c0.4,0.2,0.9,0.3,1.5,0.3
			c0.8,0,1.5-0.2,2-0.6c0.6-0.4,0.9-1,1.1-1.8h1.3c-0.1,0.5-0.3,0.9-0.6,1.4c-0.2,0.4-0.5,0.8-0.9,1.1s-0.8,0.6-1.3,0.7
			c-0.5,0.2-1.1,0.3-1.7,0.3c-0.8,0-1.5-0.1-2.1-0.4c-0.6-0.3-1.1-0.7-1.5-1.2c-0.4-0.5-0.7-1.1-0.9-1.7c-0.2-0.7-0.3-1.4-0.3-2.1
			c0-0.8,0.1-1.5,0.3-2.1c0.2-0.7,0.5-1.2,0.9-1.8c0.4-0.5,0.9-0.9,1.5-1.2c0.6-0.3,1.3-0.4,2-0.4c1.4,0,2.5,0.5,3.4,1.5
			c0.8,1,1.2,2.4,1.2,4.3H168.2z M175,51.3c0-0.5-0.1-1-0.2-1.4c-0.1-0.4-0.3-0.8-0.6-1.2c-0.3-0.3-0.6-0.6-1-0.8s-0.9-0.3-1.4-0.3
			s-1,0.1-1.4,0.3c-0.4,0.2-0.8,0.5-1,0.8c-0.3,0.3-0.5,0.7-0.7,1.2c-0.2,0.4-0.3,0.9-0.3,1.4H175z"/>
		<path class="st6" d="M185.3,54c0.2,0.9,0.5,1.5,1,1.9c0.5,0.4,1.2,0.5,2.1,0.5c0.4,0,0.8-0.1,1.1-0.2c0.3-0.1,0.6-0.2,0.8-0.4
			c0.2-0.2,0.4-0.4,0.5-0.6c0.1-0.2,0.2-0.5,0.2-0.7c0-0.5-0.2-0.9-0.5-1.1c-0.3-0.2-0.7-0.4-1.2-0.6c-0.5-0.1-1-0.3-1.6-0.4
			s-1.1-0.2-1.6-0.5s-0.9-0.5-1.2-0.9c-0.3-0.4-0.5-0.9-0.5-1.6c0-0.9,0.3-1.6,1-2.1c0.6-0.6,1.5-0.8,2.7-0.8c1.1,0,2,0.2,2.7,0.8
			s1.1,1.3,1.3,2.5h-1.2c-0.1-0.8-0.4-1.4-0.9-1.7c-0.5-0.3-1.1-0.5-1.9-0.5s-1.3,0.2-1.7,0.5c-0.4,0.3-0.6,0.8-0.6,1.3
			c0,0.5,0.2,0.8,0.5,1.1c0.3,0.2,0.7,0.4,1.2,0.6c0.5,0.2,1,0.3,1.6,0.4s1.1,0.3,1.6,0.5c0.5,0.2,0.9,0.5,1.2,0.9
			c0.3,0.4,0.5,0.9,0.5,1.6c0,0.5-0.1,0.9-0.3,1.3c-0.2,0.4-0.5,0.7-0.9,0.9c-0.4,0.3-0.8,0.4-1.3,0.6c-0.5,0.1-1.1,0.2-1.7,0.2
			s-1.2-0.1-1.6-0.3c-0.5-0.2-0.9-0.4-1.2-0.8c-0.3-0.3-0.6-0.7-0.8-1.1c-0.2-0.4-0.3-0.9-0.3-1.4H185.3z"/>
		<path class="st6" d="M204.2,57.3c-0.1,0-0.3,0.1-0.6,0.1s-0.5,0.1-0.8,0.1c-0.6,0-1.1-0.2-1.4-0.5s-0.5-0.8-0.5-1.6v-7.6h-1.5v-1
			h1.5V44h1.2v2.9h1.9v1h-1.9V55c0,0.3,0,0.5,0,0.7s0.1,0.3,0.1,0.5s0.2,0.2,0.3,0.3c0.1,0.1,0.3,0.1,0.6,0.1c0.2,0,0.3,0,0.5,0
			c0.2,0,0.3-0.1,0.5-0.1V57.3z"/>
	</g>
	<text transform="matrix(1 0 0 1 147.591 107.2112)" class="st7 st8 st9">&amp;</text>
	<g class="st5">
		<path class="st6" d="M112,157.2v-14.4h1.2v5.5c0.5-0.5,1-0.9,1.5-1.2s1.1-0.5,1.9-0.5c0.6,0,1.2,0.1,1.8,0.3
			c0.5,0.2,1,0.6,1.4,1.1c0.3,0.4,0.4,0.8,0.4,1.2s0.1,0.8,0.1,1.2v6.8H119v-6.8c0-0.9-0.2-1.6-0.6-2.1c-0.4-0.5-1.1-0.7-2.1-0.7
			c-0.4,0-0.7,0.1-1,0.2s-0.6,0.3-0.8,0.4c-0.2,0.2-0.5,0.4-0.6,0.6s-0.3,0.5-0.4,0.8c-0.1,0.3-0.2,0.7-0.2,1c0,0.3,0,0.6,0,1v5.6
			H112z"/>
		<path class="st6" d="M129.9,152.3c0,0.6,0.1,1.1,0.2,1.6c0.1,0.5,0.4,0.9,0.6,1.3c0.3,0.4,0.7,0.7,1.1,0.9s0.9,0.3,1.5,0.3
			c0.8,0,1.5-0.2,2-0.6s0.9-1,1.1-1.8h1.3c-0.1,0.5-0.3,0.9-0.6,1.4c-0.2,0.4-0.5,0.8-0.9,1.1c-0.4,0.3-0.8,0.6-1.3,0.7
			c-0.5,0.2-1.1,0.3-1.7,0.3c-0.8,0-1.5-0.1-2.1-0.4c-0.6-0.3-1.1-0.7-1.5-1.2c-0.4-0.5-0.7-1.1-0.9-1.7c-0.2-0.7-0.3-1.4-0.3-2.1
			c0-0.8,0.1-1.5,0.3-2.1c0.2-0.7,0.5-1.2,0.9-1.8s0.9-0.9,1.5-1.2c0.6-0.3,1.3-0.4,2-0.4c1.4,0,2.5,0.5,3.4,1.5
			c0.8,1,1.2,2.4,1.2,4.3H129.9z M136.6,151.3c0-0.5-0.1-1-0.2-1.4c-0.1-0.4-0.3-0.8-0.6-1.2c-0.3-0.3-0.6-0.6-1-0.8
			c-0.4-0.2-0.9-0.3-1.4-0.3c-0.5,0-1,0.1-1.4,0.3s-0.8,0.5-1,0.8s-0.5,0.7-0.7,1.2c-0.2,0.4-0.3,0.9-0.3,1.4H136.6z"/>
		<path class="st6" d="M151,151.2c0.2,0,0.5-0.1,0.8-0.1c0.3-0.1,0.6-0.1,0.8-0.2c0.2-0.1,0.3-0.2,0.4-0.5c0-0.2,0.1-0.4,0.1-0.6
			c0-0.6-0.2-1.1-0.6-1.5c-0.4-0.4-1.1-0.6-2-0.6c-0.4,0-0.8,0-1.1,0.1s-0.6,0.2-0.9,0.4c-0.3,0.2-0.5,0.4-0.6,0.7
			c-0.2,0.3-0.3,0.7-0.3,1.1h-1.2c0-0.6,0.2-1.1,0.4-1.6c0.2-0.4,0.6-0.8,0.9-1.1s0.8-0.5,1.3-0.6c0.5-0.1,1-0.2,1.6-0.2
			c0.5,0,1,0.1,1.5,0.2s0.9,0.3,1.2,0.5c0.3,0.2,0.6,0.6,0.8,1c0.2,0.4,0.3,0.9,0.3,1.5v5.6c0,0.5,0.1,0.8,0.2,0.9
			c0.2,0.1,0.5,0.1,1-0.1v0.9c-0.1,0-0.2,0.1-0.4,0.1c-0.2,0.1-0.4,0.1-0.5,0.1c-0.2,0-0.4,0-0.5-0.1c-0.2,0-0.4-0.1-0.5-0.2
			c-0.1-0.1-0.2-0.2-0.3-0.4c-0.1-0.1-0.1-0.3-0.2-0.5c0-0.2,0-0.3,0-0.5c-0.5,0.6-1.1,1-1.7,1.3s-1.4,0.4-2.1,0.4
			c-0.5,0-0.9-0.1-1.3-0.2c-0.4-0.1-0.8-0.3-1.1-0.6s-0.6-0.6-0.8-0.9c-0.2-0.4-0.3-0.8-0.3-1.3c0-1.8,1.2-2.8,3.6-3.1L151,151.2z
			 M153,151.8c-0.5,0.2-1,0.4-1.5,0.4c-0.5,0.1-1,0.1-1.6,0.2c-0.9,0.1-1.6,0.3-2.1,0.6c-0.5,0.3-0.8,0.9-0.8,1.6
			c0,0.3,0.1,0.6,0.2,0.8c0.1,0.2,0.3,0.4,0.5,0.6c0.2,0.2,0.4,0.3,0.7,0.3s0.6,0.1,0.8,0.1c0.5,0,0.9-0.1,1.4-0.2
			c0.5-0.1,0.9-0.3,1.2-0.5c0.4-0.2,0.6-0.6,0.9-0.9s0.3-0.8,0.3-1.4V151.8z"/>
		<path class="st6" d="M164.6,157.2h-1.2v-10.4h1.2v1.9h0c0.3-0.8,0.8-1.4,1.3-1.7c0.5-0.3,1.2-0.5,2.1-0.5v1.3
			c-0.7,0-1.2,0.1-1.7,0.3c-0.4,0.2-0.8,0.5-1,0.9s-0.4,0.8-0.5,1.4c-0.1,0.5-0.1,1.1-0.1,1.7V157.2z"/>
		<path class="st6" d="M179.7,157.3c-0.1,0-0.3,0.1-0.6,0.1s-0.5,0.1-0.8,0.1c-0.6,0-1.1-0.2-1.4-0.5c-0.3-0.3-0.5-0.8-0.5-1.6v-7.6
			H175v-1h1.5V144h1.2v2.9h1.9v1h-1.9v7.1c0,0.3,0,0.5,0,0.7c0,0.2,0.1,0.3,0.1,0.5c0.1,0.1,0.2,0.2,0.3,0.3s0.3,0.1,0.6,0.1
			c0.2,0,0.3,0,0.5,0c0.2,0,0.3-0.1,0.5-0.1V157.3z"/>
		<path class="st6" d="M187.6,157.2v-14.4h1.2v5.5c0.5-0.5,1-0.9,1.5-1.2c0.5-0.3,1.1-0.5,1.9-0.5c0.6,0,1.2,0.1,1.8,0.3
			c0.5,0.2,1,0.6,1.4,1.1c0.3,0.4,0.4,0.8,0.4,1.2s0.1,0.8,0.1,1.2v6.8h-1.2v-6.8c0-0.9-0.2-1.6-0.6-2.1c-0.4-0.5-1.1-0.7-2.1-0.7
			c-0.4,0-0.7,0.1-1,0.2s-0.6,0.3-0.8,0.4c-0.2,0.2-0.5,0.4-0.6,0.6c-0.2,0.2-0.3,0.5-0.4,0.8c-0.1,0.3-0.2,0.7-0.2,1
			c0,0.3,0,0.6,0,1v5.6H187.6z"/>
	</g>
</g>
<line class="st10" x1="86.9" y1="177.2" x2="226.9" y2="177.2"/>
<g class="st5">
	<path class="st11" d="M63.7,192.2v-5.7h3.9v0.7h-3.1v1.8h2.7v0.7h-2.7v2.6H63.7z"/>
	<path class="st11" d="M70.5,192.2l2.2-5.7h0.8l2.3,5.7H75l-0.7-1.7h-2.4l-0.6,1.7H70.5z M72.2,189.9h1.9l-0.6-1.6
		c-0.2-0.5-0.3-0.9-0.4-1.2c-0.1,0.4-0.2,0.7-0.3,1.1L72.2,189.9z"/>
	<path class="st11" d="M79.5,192.2v-5.7H82c0.5,0,0.9,0.1,1.2,0.2s0.5,0.3,0.6,0.5c0.2,0.3,0.2,0.5,0.2,0.9c0,0.4-0.1,0.7-0.4,1
		c-0.3,0.3-0.7,0.5-1.2,0.5c0.2,0.1,0.4,0.2,0.5,0.3c0.2,0.2,0.4,0.5,0.6,0.8l1,1.6h-1l-0.8-1.2c-0.2-0.3-0.4-0.6-0.5-0.8
		c-0.1-0.2-0.3-0.3-0.4-0.4s-0.2-0.1-0.3-0.2c-0.1,0-0.2,0-0.4,0h-0.9v2.5H79.5z M80.2,189h1.6c0.3,0,0.6,0,0.8-0.1s0.3-0.2,0.4-0.3
		s0.2-0.3,0.2-0.5c0-0.3-0.1-0.5-0.3-0.7c-0.2-0.2-0.5-0.3-0.9-0.3h-1.8V189z"/>
	<path class="st11" d="M88.2,192.2v-5.7h1.1l1.4,4.1c0.1,0.4,0.2,0.7,0.3,0.8c0.1-0.2,0.2-0.5,0.3-0.9l1.4-4h1v5.7H93v-4.8l-1.7,4.8
		h-0.7l-1.7-4.9v4.9H88.2z"/>
	<path class="st11" d="M104.4,192.2v-5.1h-1.9v-0.7h4.5v0.7h-1.9v5.1H104.4z"/>
	<path class="st11" d="M110.5,189.4c0-1,0.3-1.7,0.8-2.2c0.5-0.5,1.2-0.8,2-0.8c0.5,0,1,0.1,1.4,0.4c0.4,0.3,0.7,0.6,1,1.1
		s0.3,1,0.3,1.5c0,0.6-0.1,1.1-0.4,1.6s-0.6,0.8-1,1s-0.9,0.4-1.4,0.4c-0.5,0-1-0.1-1.4-0.4c-0.4-0.3-0.7-0.6-1-1.1
		S110.5,189.9,110.5,189.4z M111.3,189.4c0,0.7,0.2,1.2,0.6,1.6s0.8,0.6,1.4,0.6c0.6,0,1-0.2,1.4-0.6c0.4-0.4,0.6-1,0.6-1.7
		c0-0.5-0.1-0.9-0.2-1.2c-0.2-0.3-0.4-0.6-0.7-0.8c-0.3-0.2-0.6-0.3-1-0.3c-0.5,0-1,0.2-1.4,0.6S111.3,188.6,111.3,189.4z"/>
	<path class="st11" d="M126.5,192.2v-5.1h-1.9v-0.7h4.5v0.7h-1.9v5.1H126.5z"/>
	<path class="st11" d="M131.7,192.2l2.2-5.7h0.8l2.3,5.7h-0.9l-0.7-1.7h-2.4l-0.6,1.7H131.7z M133.3,189.9h1.9l-0.6-1.6
		c-0.2-0.5-0.3-0.9-0.4-1.2c-0.1,0.4-0.2,0.7-0.3,1.1L133.3,189.9z"/>
	<path class="st11" d="M140.6,192.2v-5.7h2.1c0.4,0,0.8,0.1,1.1,0.2c0.3,0.1,0.5,0.3,0.6,0.5c0.1,0.2,0.2,0.5,0.2,0.8
		c0,0.2-0.1,0.5-0.2,0.7s-0.3,0.4-0.6,0.5c0.3,0.1,0.6,0.3,0.8,0.5c0.2,0.2,0.3,0.5,0.3,0.9c0,0.3-0.1,0.5-0.2,0.7s-0.3,0.4-0.4,0.5
		c-0.2,0.1-0.4,0.2-0.6,0.3c-0.3,0.1-0.6,0.1-0.9,0.1H140.6z M141.4,188.9h1.2c0.3,0,0.6,0,0.7-0.1c0.2-0.1,0.3-0.2,0.4-0.3
		s0.1-0.3,0.1-0.5c0-0.2,0-0.4-0.1-0.5c-0.1-0.1-0.2-0.2-0.4-0.3c-0.2-0.1-0.5-0.1-0.9-0.1h-1.1V188.9z M141.4,191.5h1.4
		c0.2,0,0.4,0,0.5,0c0.2,0,0.3-0.1,0.4-0.2s0.2-0.2,0.3-0.3c0.1-0.1,0.1-0.3,0.1-0.5c0-0.2-0.1-0.4-0.2-0.6s-0.3-0.3-0.5-0.3
		c-0.2-0.1-0.5-0.1-0.8-0.1h-1.3V191.5z"/>
	<path class="st11" d="M149,192.2v-5.7h0.8v5.1h2.8v0.7H149z"/>
	<path class="st11" d="M156.5,192.2v-5.7h4.1v0.7h-3.4v1.8h3.2v0.7h-3.2v1.9h3.5v0.7H156.5z"/>
	<path class="st11" d="M170.3,189.7v-0.8h0.8v0.8H170.3z"/>
	<path class="st11" d="M180.9,192.2v-5.7h4.1v0.7h-3.4v1.8h3.2v0.7h-3.2v1.9h3.5v0.7H180.9z"/>
	<path class="st11" d="M189.2,192.2v-5.7h2c0.4,0,0.8,0,1,0.1c0.3,0.1,0.6,0.2,0.8,0.4c0.3,0.3,0.5,0.6,0.7,1
		c0.1,0.4,0.2,0.9,0.2,1.4c0,0.4-0.1,0.8-0.2,1.2s-0.2,0.6-0.4,0.8c-0.2,0.2-0.3,0.4-0.5,0.5c-0.2,0.1-0.4,0.2-0.7,0.3
		c-0.3,0.1-0.6,0.1-0.9,0.1H189.2z M190,191.5h1.2c0.4,0,0.7,0,0.9-0.1s0.4-0.2,0.5-0.3c0.2-0.2,0.3-0.4,0.4-0.7
		c0.1-0.3,0.2-0.7,0.2-1.1c0-0.6-0.1-1.1-0.3-1.4c-0.2-0.3-0.4-0.5-0.7-0.6c-0.2-0.1-0.5-0.1-1-0.1H190V191.5z"/>
	<path class="st11" d="M198,192.2v-5.7h1.1l1.4,4.1c0.1,0.4,0.2,0.7,0.3,0.8c0.1-0.2,0.2-0.5,0.3-0.9l1.4-4h1v5.7h-0.7v-4.8
		l-1.7,4.8h-0.7l-1.7-4.9v4.9H198z"/>
	<path class="st11" d="M207.4,189.4c0-1,0.3-1.7,0.8-2.2c0.5-0.5,1.2-0.8,2-0.8c0.5,0,1,0.1,1.4,0.4c0.4,0.3,0.7,0.6,1,1.1
		s0.3,1,0.3,1.5c0,0.6-0.1,1.1-0.4,1.6s-0.6,0.8-1,1s-0.9,0.4-1.4,0.4c-0.5,0-1-0.1-1.4-0.4c-0.4-0.3-0.7-0.6-1-1.1
		S207.4,189.9,207.4,189.4z M208.2,189.4c0,0.7,0.2,1.2,0.6,1.6s0.8,0.6,1.4,0.6c0.6,0,1-0.2,1.4-0.6c0.4-0.4,0.6-1,0.6-1.7
		c0-0.5-0.1-0.9-0.2-1.2c-0.2-0.3-0.4-0.6-0.7-0.8c-0.3-0.2-0.6-0.3-1-0.3c-0.5,0-1,0.2-1.4,0.6S208.2,188.6,208.2,189.4z"/>
	<path class="st11" d="M216.9,192.2v-5.7h0.8l3,4.5v-4.5h0.7v5.7h-0.8l-3-4.5v4.5H216.9z"/>
	<path class="st11" d="M227.1,192.2v-5.1h-1.9v-0.7h4.5v0.7h-1.9v5.1H227.1z"/>
	<path class="st11" d="M233.2,189.4c0-1,0.3-1.7,0.8-2.2c0.5-0.5,1.2-0.8,2-0.8c0.5,0,1,0.1,1.4,0.4c0.4,0.3,0.7,0.6,1,1.1
		s0.3,1,0.3,1.5c0,0.6-0.1,1.1-0.4,1.6s-0.6,0.8-1,1s-0.9,0.4-1.4,0.4c-0.5,0-1-0.1-1.4-0.4c-0.4-0.3-0.7-0.6-1-1.1
		S233.2,189.9,233.2,189.4z M234,189.4c0,0.7,0.2,1.2,0.6,1.6s0.8,0.6,1.4,0.6c0.6,0,1-0.2,1.4-0.6c0.4-0.4,0.6-1,0.6-1.7
		c0-0.5-0.1-0.9-0.2-1.2c-0.2-0.3-0.4-0.6-0.7-0.8c-0.3-0.2-0.6-0.3-1-0.3c-0.5,0-1,0.2-1.4,0.6S234,188.6,234,189.4z"/>
	<path class="st11" d="M242.6,192.2v-5.7h0.8l3,4.5v-4.5h0.7v5.7h-0.8l-3-4.5v4.5H242.6z"/>
</g>
</svg>
